<mxfile host="app.diagrams.net" agent="Mozilla/5.0 (Windows NT 10.0; Win64; x64) AppleWebKit/537.36 (KHTML, like Gecko) Chrome/134.0.0.0 Safari/537.36" version="26.1.2">
  <diagram name="Page-1" id="2YBvvXClWsGukQMizWep">
    <mxGraphModel dx="962" dy="570" grid="1" gridSize="10" guides="1" tooltips="1" connect="1" arrows="1" fold="1" page="1" pageScale="1" pageWidth="2336" pageHeight="1654" background="none" math="0" shadow="0">
      <root>
        <mxCell id="0" />
        <mxCell id="1" parent="0" />
        <mxCell id="a39JhGWc1IQLA6Pb2ddR-4" value="Actor" style="shape=umlActor;verticalLabelPosition=bottom;verticalAlign=top;html=1;" vertex="1" parent="1">
          <mxGeometry x="140" y="210" width="30" height="60" as="geometry" />
        </mxCell>
        <mxCell id="a39JhGWc1IQLA6Pb2ddR-5" value="" style="endArrow=none;dashed=1;html=1;rounded=0;" edge="1" parent="1" source="a39JhGWc1IQLA6Pb2ddR-17" target="a39JhGWc1IQLA6Pb2ddR-4">
          <mxGeometry width="50" height="50" relative="1" as="geometry">
            <mxPoint x="155" y="680" as="sourcePoint" />
            <mxPoint x="450" y="430" as="targetPoint" />
          </mxGeometry>
        </mxCell>
        <mxCell id="a39JhGWc1IQLA6Pb2ddR-8" value="" style="endArrow=none;dashed=1;html=1;rounded=0;entryX=0.572;entryY=1.005;entryDx=0;entryDy=0;entryPerimeter=0;" edge="1" parent="1" source="a39JhGWc1IQLA6Pb2ddR-22">
          <mxGeometry width="50" height="50" relative="1" as="geometry">
            <mxPoint x="317" y="670" as="sourcePoint" />
            <mxPoint x="317.20000000000005" y="280.4" as="targetPoint" />
          </mxGeometry>
        </mxCell>
        <mxCell id="a39JhGWc1IQLA6Pb2ddR-10" value="UI" style="html=1;whiteSpace=wrap;" vertex="1" parent="1">
          <mxGeometry x="260" y="230" width="110" height="50" as="geometry" />
        </mxCell>
        <mxCell id="a39JhGWc1IQLA6Pb2ddR-11" value="System" style="html=1;whiteSpace=wrap;" vertex="1" parent="1">
          <mxGeometry x="440" y="230" width="110" height="50" as="geometry" />
        </mxCell>
        <mxCell id="a39JhGWc1IQLA6Pb2ddR-12" value="Bank/Wallet" style="html=1;whiteSpace=wrap;" vertex="1" parent="1">
          <mxGeometry x="610" y="230" width="110" height="50" as="geometry" />
        </mxCell>
        <mxCell id="a39JhGWc1IQLA6Pb2ddR-13" value="OTP service" style="html=1;whiteSpace=wrap;" vertex="1" parent="1">
          <mxGeometry x="730" y="230" width="110" height="50" as="geometry" />
        </mxCell>
        <mxCell id="a39JhGWc1IQLA6Pb2ddR-14" value="" style="endArrow=none;dashed=1;html=1;rounded=0;entryX=0.5;entryY=1;entryDx=0;entryDy=0;" edge="1" parent="1" source="a39JhGWc1IQLA6Pb2ddR-39" target="a39JhGWc1IQLA6Pb2ddR-11">
          <mxGeometry width="50" height="50" relative="1" as="geometry">
            <mxPoint x="495" y="680" as="sourcePoint" />
            <mxPoint x="450" y="430" as="targetPoint" />
          </mxGeometry>
        </mxCell>
        <mxCell id="a39JhGWc1IQLA6Pb2ddR-15" value="" style="endArrow=none;dashed=1;html=1;rounded=0;entryX=0.5;entryY=1;entryDx=0;entryDy=0;exitX=0.707;exitY=1.001;exitDx=0;exitDy=0;exitPerimeter=0;" edge="1" parent="1" source="a39JhGWc1IQLA6Pb2ddR-44" target="a39JhGWc1IQLA6Pb2ddR-12">
          <mxGeometry width="50" height="50" relative="1" as="geometry">
            <mxPoint x="670" y="930" as="sourcePoint" />
            <mxPoint x="450" y="430" as="targetPoint" />
          </mxGeometry>
        </mxCell>
        <mxCell id="a39JhGWc1IQLA6Pb2ddR-18" value="" style="endArrow=none;dashed=1;html=1;rounded=0;exitX=0.147;exitY=1.005;exitDx=0;exitDy=0;exitPerimeter=0;" edge="1" parent="1" source="a39JhGWc1IQLA6Pb2ddR-44" target="a39JhGWc1IQLA6Pb2ddR-17">
          <mxGeometry width="50" height="50" relative="1" as="geometry">
            <mxPoint x="155" y="911" as="sourcePoint" />
            <mxPoint x="155" y="270" as="targetPoint" />
          </mxGeometry>
        </mxCell>
        <mxCell id="a39JhGWc1IQLA6Pb2ddR-17" value="" style="html=1;points=[[0,0,0,0,5],[0,1,0,0,-5],[1,0,0,0,5],[1,1,0,0,-5]];perimeter=orthogonalPerimeter;outlineConnect=0;targetShapes=umlLifeline;portConstraint=eastwest;newEdgeStyle={&quot;curved&quot;:0,&quot;rounded&quot;:0};" vertex="1" parent="1">
          <mxGeometry x="150" y="300" width="10" height="540" as="geometry" />
        </mxCell>
        <mxCell id="a39JhGWc1IQLA6Pb2ddR-19" value="" style="endArrow=none;dashed=1;html=1;rounded=0;entryX=0.5;entryY=1;entryDx=0;entryDy=0;" edge="1" parent="1" source="a39JhGWc1IQLA6Pb2ddR-47" target="a39JhGWc1IQLA6Pb2ddR-13">
          <mxGeometry width="50" height="50" relative="1" as="geometry">
            <mxPoint x="785" y="890" as="sourcePoint" />
            <mxPoint x="450" y="430" as="targetPoint" />
          </mxGeometry>
        </mxCell>
        <mxCell id="a39JhGWc1IQLA6Pb2ddR-21" value="chọn &#39;Rút tiền&#39;" style="html=1;verticalAlign=bottom;endArrow=block;curved=0;rounded=0;" edge="1" parent="1" target="a39JhGWc1IQLA6Pb2ddR-22">
          <mxGeometry width="80" relative="1" as="geometry">
            <mxPoint x="150" y="310" as="sourcePoint" />
            <mxPoint x="230" y="310" as="targetPoint" />
          </mxGeometry>
        </mxCell>
        <mxCell id="a39JhGWc1IQLA6Pb2ddR-23" value="" style="endArrow=none;dashed=1;html=1;rounded=0;entryX=0.572;entryY=1.005;entryDx=0;entryDy=0;entryPerimeter=0;exitX=0.325;exitY=0.997;exitDx=0;exitDy=0;exitPerimeter=0;" edge="1" parent="1" source="a39JhGWc1IQLA6Pb2ddR-44" target="a39JhGWc1IQLA6Pb2ddR-22">
          <mxGeometry width="50" height="50" relative="1" as="geometry">
            <mxPoint x="316" y="924" as="sourcePoint" />
            <mxPoint x="317.20000000000005" y="280.4" as="targetPoint" />
          </mxGeometry>
        </mxCell>
        <mxCell id="a39JhGWc1IQLA6Pb2ddR-22" value="" style="html=1;points=[[0,0,0,0,5],[0,1,0,0,-5],[1,0,0,0,5],[1,1,0,0,-5]];perimeter=orthogonalPerimeter;outlineConnect=0;targetShapes=umlLifeline;portConstraint=eastwest;newEdgeStyle={&quot;curved&quot;:0,&quot;rounded&quot;:0};" vertex="1" parent="1">
          <mxGeometry x="310" y="310" width="10" height="150" as="geometry" />
        </mxCell>
        <mxCell id="a39JhGWc1IQLA6Pb2ddR-25" value="hiển thị phương thức rút" style="html=1;verticalAlign=bottom;endArrow=open;dashed=1;endSize=8;curved=0;rounded=0;" edge="1" parent="1">
          <mxGeometry relative="1" as="geometry">
            <mxPoint x="310" y="339.5" as="sourcePoint" />
            <mxPoint x="160" y="339.5" as="targetPoint" />
          </mxGeometry>
        </mxCell>
        <mxCell id="a39JhGWc1IQLA6Pb2ddR-26" value="chọn phương thức" style="html=1;verticalAlign=bottom;endArrow=block;curved=0;rounded=0;" edge="1" parent="1" target="a39JhGWc1IQLA6Pb2ddR-22">
          <mxGeometry width="80" relative="1" as="geometry">
            <mxPoint x="160" y="370" as="sourcePoint" />
            <mxPoint x="240" y="370" as="targetPoint" />
          </mxGeometry>
        </mxCell>
        <mxCell id="a39JhGWc1IQLA6Pb2ddR-29" value="nhập sô tiền" style="html=1;verticalAlign=bottom;endArrow=block;curved=0;rounded=0;" edge="1" parent="1">
          <mxGeometry width="80" relative="1" as="geometry">
            <mxPoint x="160" y="400" as="sourcePoint" />
            <mxPoint x="310" y="400" as="targetPoint" />
          </mxGeometry>
        </mxCell>
        <mxCell id="a39JhGWc1IQLA6Pb2ddR-30" value="xác nhận rút" style="html=1;verticalAlign=bottom;endArrow=block;curved=0;rounded=0;" edge="1" parent="1">
          <mxGeometry width="80" relative="1" as="geometry">
            <mxPoint x="160" y="430" as="sourcePoint" />
            <mxPoint x="310" y="430" as="targetPoint" />
          </mxGeometry>
        </mxCell>
        <mxCell id="a39JhGWc1IQLA6Pb2ddR-40" value="gửi yêu cầu rút tiền" style="html=1;verticalAlign=bottom;endArrow=block;curved=0;rounded=0;entryX=0;entryY=0;entryDx=0;entryDy=5;" edge="1" parent="1">
          <mxGeometry relative="1" as="geometry">
            <mxPoint x="320" y="460" as="sourcePoint" />
            <mxPoint x="490" y="460" as="targetPoint" />
          </mxGeometry>
        </mxCell>
        <mxCell id="a39JhGWc1IQLA6Pb2ddR-42" value="" style="endArrow=none;dashed=1;html=1;rounded=0;entryX=0.5;entryY=1;entryDx=0;entryDy=0;exitX=0.521;exitY=1.006;exitDx=0;exitDy=0;exitPerimeter=0;" edge="1" parent="1" source="a39JhGWc1IQLA6Pb2ddR-44" target="a39JhGWc1IQLA6Pb2ddR-39">
          <mxGeometry width="50" height="50" relative="1" as="geometry">
            <mxPoint x="495" y="890" as="sourcePoint" />
            <mxPoint x="495" y="280" as="targetPoint" />
          </mxGeometry>
        </mxCell>
        <mxCell id="a39JhGWc1IQLA6Pb2ddR-39" value="" style="html=1;points=[[0,0,0,0,5],[0,1,0,0,-5],[1,0,0,0,5],[1,1,0,0,-5]];perimeter=orthogonalPerimeter;outlineConnect=0;targetShapes=umlLifeline;portConstraint=eastwest;newEdgeStyle={&quot;curved&quot;:0,&quot;rounded&quot;:0};" vertex="1" parent="1">
          <mxGeometry x="490" y="460" width="10" height="360" as="geometry" />
        </mxCell>
        <mxCell id="a39JhGWc1IQLA6Pb2ddR-43" value="kiểm tra số dư(&amp;gt;10.&lt;span style=&quot;background-color: light-dark(#ffffff, var(--ge-dark-color, #121212)); color: light-dark(rgb(0, 0, 0), rgb(255, 255, 255));&quot;&gt;000)&lt;/span&gt;&lt;div&gt;&lt;span style=&quot;background-color: light-dark(#ffffff, var(--ge-dark-color, #121212)); color: light-dark(rgb(0, 0, 0), rgb(255, 255, 255));&quot;&gt;và liên kết&lt;/span&gt;&lt;/div&gt;" style="html=1;verticalAlign=bottom;endArrow=block;curved=0;rounded=0;" edge="1" parent="1" target="a39JhGWc1IQLA6Pb2ddR-39">
          <mxGeometry x="-0.1667" y="41" width="80" relative="1" as="geometry">
            <mxPoint x="500" y="470" as="sourcePoint" />
            <mxPoint x="500" y="500" as="targetPoint" />
            <Array as="points">
              <mxPoint x="550" y="470" />
              <mxPoint x="550" y="490" />
            </Array>
            <mxPoint x="-1" y="-10" as="offset" />
          </mxGeometry>
        </mxCell>
        <mxCell id="a39JhGWc1IQLA6Pb2ddR-44" value="alt" style="shape=umlFrame;whiteSpace=wrap;html=1;pointerEvents=0;" vertex="1" parent="1">
          <mxGeometry x="20" y="560" width="910" height="310" as="geometry" />
        </mxCell>
        <mxCell id="a39JhGWc1IQLA6Pb2ddR-45" value="số dư đủ và tk hợp lệ" style="text;align=center;fontStyle=1;verticalAlign=middle;spacingLeft=3;spacingRight=3;strokeColor=none;rotatable=0;points=[[0,0.5],[1,0.5]];portConstraint=eastwest;html=1;fontSize=10;fontFamily=Times New Roman;" vertex="1" parent="1">
          <mxGeometry x="190" y="560" width="80" height="26" as="geometry" />
        </mxCell>
        <mxCell id="a39JhGWc1IQLA6Pb2ddR-46" value="Yêu cầu gửi mã OTP qua SMS" style="html=1;verticalAlign=bottom;endArrow=block;curved=0;rounded=0;" edge="1" parent="1" target="a39JhGWc1IQLA6Pb2ddR-47">
          <mxGeometry width="80" relative="1" as="geometry">
            <mxPoint x="500" y="586" as="sourcePoint" />
            <mxPoint x="580" y="586" as="targetPoint" />
          </mxGeometry>
        </mxCell>
        <mxCell id="a39JhGWc1IQLA6Pb2ddR-48" value="" style="endArrow=none;dashed=1;html=1;rounded=0;entryX=0.5;entryY=1;entryDx=0;entryDy=0;" edge="1" parent="1" target="a39JhGWc1IQLA6Pb2ddR-47">
          <mxGeometry width="50" height="50" relative="1" as="geometry">
            <mxPoint x="785" y="870" as="sourcePoint" />
            <mxPoint x="785" y="280" as="targetPoint" />
          </mxGeometry>
        </mxCell>
        <mxCell id="a39JhGWc1IQLA6Pb2ddR-47" value="" style="html=1;points=[[0,0,0,0,5],[0,1,0,0,-5],[1,0,0,0,5],[1,1,0,0,-5]];perimeter=orthogonalPerimeter;outlineConnect=0;targetShapes=umlLifeline;portConstraint=eastwest;newEdgeStyle={&quot;curved&quot;:0,&quot;rounded&quot;:0};" vertex="1" parent="1">
          <mxGeometry x="780" y="586" width="10" height="94" as="geometry" />
        </mxCell>
        <mxCell id="a39JhGWc1IQLA6Pb2ddR-49" value="Nhận mã OTP qua SMS" style="html=1;verticalAlign=bottom;endArrow=open;dashed=1;endSize=8;curved=0;rounded=0;" edge="1" parent="1">
          <mxGeometry relative="1" as="geometry">
            <mxPoint x="780" y="610" as="sourcePoint" />
            <mxPoint x="160" y="610" as="targetPoint" />
          </mxGeometry>
        </mxCell>
        <mxCell id="a39JhGWc1IQLA6Pb2ddR-50" value="Nhập mã OTP" style="html=1;verticalAlign=bottom;endArrow=block;curved=0;rounded=0;" edge="1" parent="1" target="a39JhGWc1IQLA6Pb2ddR-51">
          <mxGeometry width="80" relative="1" as="geometry">
            <mxPoint x="160" y="634.5" as="sourcePoint" />
            <mxPoint x="300" y="635" as="targetPoint" />
          </mxGeometry>
        </mxCell>
        <mxCell id="a39JhGWc1IQLA6Pb2ddR-51" value="" style="html=1;points=[[0,0,0,0,5],[0,1,0,0,-5],[1,0,0,0,5],[1,1,0,0,-5]];perimeter=orthogonalPerimeter;outlineConnect=0;targetShapes=umlLifeline;portConstraint=eastwest;newEdgeStyle={&quot;curved&quot;:0,&quot;rounded&quot;:0};" vertex="1" parent="1">
          <mxGeometry x="310" y="630" width="10" height="200" as="geometry" />
        </mxCell>
        <mxCell id="a39JhGWc1IQLA6Pb2ddR-53" value="gửi mã OTP" style="html=1;verticalAlign=bottom;endArrow=block;curved=0;rounded=0;" edge="1" parent="1" target="a39JhGWc1IQLA6Pb2ddR-39">
          <mxGeometry width="80" relative="1" as="geometry">
            <mxPoint x="320" y="650" as="sourcePoint" />
            <mxPoint x="390" y="650" as="targetPoint" />
          </mxGeometry>
        </mxCell>
        <mxCell id="a39JhGWc1IQLA6Pb2ddR-54" value="xác minh OTP" style="html=1;verticalAlign=bottom;endArrow=block;curved=0;rounded=0;" edge="1" parent="1" target="a39JhGWc1IQLA6Pb2ddR-47">
          <mxGeometry width="80" relative="1" as="geometry">
            <mxPoint x="500" y="659.5" as="sourcePoint" />
            <mxPoint x="580" y="659.5" as="targetPoint" />
          </mxGeometry>
        </mxCell>
        <mxCell id="a39JhGWc1IQLA6Pb2ddR-56" value="OTP đúng" style="html=1;verticalAlign=bottom;endArrow=open;dashed=1;endSize=8;curved=0;rounded=0;" edge="1" parent="1" target="a39JhGWc1IQLA6Pb2ddR-39">
          <mxGeometry relative="1" as="geometry">
            <mxPoint x="780" y="680" as="sourcePoint" />
            <mxPoint x="700" y="680" as="targetPoint" />
          </mxGeometry>
        </mxCell>
        <mxCell id="a39JhGWc1IQLA6Pb2ddR-57" value="chuyển tiền" style="html=1;verticalAlign=bottom;endArrow=block;curved=0;rounded=0;" edge="1" parent="1" target="a39JhGWc1IQLA6Pb2ddR-58">
          <mxGeometry width="80" relative="1" as="geometry">
            <mxPoint x="500" y="700" as="sourcePoint" />
            <mxPoint x="660" y="700" as="targetPoint" />
          </mxGeometry>
        </mxCell>
        <mxCell id="a39JhGWc1IQLA6Pb2ddR-58" value="" style="html=1;points=[[0,0,0,0,5],[0,1,0,0,-5],[1,0,0,0,5],[1,1,0,0,-5]];perimeter=orthogonalPerimeter;outlineConnect=0;targetShapes=umlLifeline;portConstraint=eastwest;newEdgeStyle={&quot;curved&quot;:0,&quot;rounded&quot;:0};" vertex="1" parent="1">
          <mxGeometry x="660" y="700" width="10" height="30" as="geometry" />
        </mxCell>
        <mxCell id="a39JhGWc1IQLA6Pb2ddR-59" value="xác nhận giao dịch" style="html=1;verticalAlign=bottom;endArrow=open;dashed=1;endSize=8;curved=0;rounded=0;" edge="1" parent="1">
          <mxGeometry relative="1" as="geometry">
            <mxPoint x="660" y="730" as="sourcePoint" />
            <mxPoint x="500" y="730" as="targetPoint" />
          </mxGeometry>
        </mxCell>
        <mxCell id="a39JhGWc1IQLA6Pb2ddR-60" value="thông báo thành công" style="html=1;verticalAlign=bottom;endArrow=open;dashed=1;endSize=8;curved=0;rounded=0;" edge="1" parent="1" target="a39JhGWc1IQLA6Pb2ddR-51">
          <mxGeometry relative="1" as="geometry">
            <mxPoint x="490" y="750" as="sourcePoint" />
            <mxPoint x="410" y="750" as="targetPoint" />
          </mxGeometry>
        </mxCell>
        <mxCell id="a39JhGWc1IQLA6Pb2ddR-61" value="hiển thị thành công" style="html=1;verticalAlign=bottom;endArrow=open;dashed=1;endSize=8;curved=0;rounded=0;" edge="1" parent="1" target="a39JhGWc1IQLA6Pb2ddR-17">
          <mxGeometry relative="1" as="geometry">
            <mxPoint x="310" y="760" as="sourcePoint" />
            <mxPoint x="170" y="760" as="targetPoint" />
          </mxGeometry>
        </mxCell>
        <mxCell id="a39JhGWc1IQLA6Pb2ddR-64" value="[số dư không đủ]" style="text;align=center;fontStyle=1;verticalAlign=middle;spacingLeft=3;spacingRight=3;strokeColor=none;rotatable=0;points=[[0,0.5],[1,0.5]];portConstraint=eastwest;html=1;" vertex="1" parent="1">
          <mxGeometry x="330" y="780" width="80" height="26" as="geometry" />
        </mxCell>
        <mxCell id="a39JhGWc1IQLA6Pb2ddR-66" value="thông báo số dư không đủ" style="html=1;verticalAlign=bottom;endArrow=open;dashed=1;endSize=8;curved=0;rounded=0;" edge="1" parent="1">
          <mxGeometry x="-0.0588" y="1" relative="1" as="geometry">
            <mxPoint x="490" y="820" as="sourcePoint" />
            <mxPoint x="320" y="820" as="targetPoint" />
            <mxPoint as="offset" />
          </mxGeometry>
        </mxCell>
        <mxCell id="a39JhGWc1IQLA6Pb2ddR-67" value="hiển thị lỗi" style="html=1;verticalAlign=bottom;endArrow=open;dashed=1;endSize=8;curved=0;rounded=0;" edge="1" parent="1">
          <mxGeometry x="-0.0667" relative="1" as="geometry">
            <mxPoint x="310" y="830" as="sourcePoint" />
            <mxPoint x="160" y="830" as="targetPoint" />
            <mxPoint as="offset" />
          </mxGeometry>
        </mxCell>
        <mxCell id="a39JhGWc1IQLA6Pb2ddR-68" value="" style="endArrow=none;dashed=1;html=1;rounded=0;entryX=1.002;entryY=0.706;entryDx=0;entryDy=0;entryPerimeter=0;" edge="1" parent="1" target="a39JhGWc1IQLA6Pb2ddR-44">
          <mxGeometry width="50" height="50" relative="1" as="geometry">
            <mxPoint x="20" y="780" as="sourcePoint" />
            <mxPoint x="70" y="730" as="targetPoint" />
          </mxGeometry>
        </mxCell>
      </root>
    </mxGraphModel>
  </diagram>
</mxfile>
